HIERARCHY
ROOT Hips
{
	OFFSET 0.000000 71.427986 0.000000
	CHANNELS 6 Xposition Yposition Zposition Xrotation Yrotation Zrotation
	JOINT Pelvis
	{
		OFFSET 0.000000 0.000000 0.000000
		CHANNELS 3 Xrotation Yrotation Zrotation
		JOINT LeftUpLeg
		{
			OFFSET 6.797100 -2.508499 -1.318700
			CHANNELS 3 Xrotation Yrotation Zrotation
			JOINT LeftLeg
			{
				OFFSET 0.069008 -29.241863 0.690200
				CHANNELS 3 Xrotation Yrotation Zrotation
				JOINT LeftFoot
				{
					OFFSET -0.069008 -29.568123 -0.266800
					CHANNELS 3 Xrotation Yrotation Zrotation
					JOINT LeftToeBase
					{
						OFFSET 3.145500 -8.631000 16.059900
						CHANNELS 3 Xrotation Yrotation Zrotation
						End Site
						{
							OFFSET 0.000000 18.501587 0.000000
						}
					}
				}
			}
			JOINT Left_ShortSleeve
			{
				OFFSET 0.265923 -10.480953 1.153800
				CHANNELS 3 Xrotation Yrotation Zrotation
				End Site
				{
					OFFSET 1.725763 19.823879 0.000000
				}
			}
		}
		JOINT RightUpLeg
		{
			OFFSET -6.797100 -2.508499 -1.318700
			CHANNELS 3 Xrotation Yrotation Zrotation
			JOINT RightLeg
			{
				OFFSET -0.082453 -29.241932 0.688000
				CHANNELS 3 Xrotation Yrotation Zrotation
				JOINT RightFoot
				{
					OFFSET 0.082453 -29.568058 -0.264600
					CHANNELS 3 Xrotation Yrotation Zrotation
					JOINT RightToeBase
					{
						OFFSET -3.115300 -8.682800 16.113400
						CHANNELS 3 Xrotation Yrotation Zrotation
						End Site
						{
							OFFSET 0.000000 18.567114 0.000000
						}
					}
				}
			}
			JOINT Right_ShortSleeve
			{
				OFFSET -0.265923 -10.480953 1.153800
				CHANNELS 3 Xrotation Yrotation Zrotation
				End Site
				{
					OFFSET -1.725766 19.823910 0.000000
				}
			}
		}
	}
	JOINT Spine
	{
		OFFSET 0.000000 13.368103 0.470500
		CHANNELS 3 Xrotation Yrotation Zrotation
		JOINT Spine1
		{
			OFFSET 0.147000 13.837402 0.538800
			CHANNELS 3 Xrotation Yrotation Zrotation
			JOINT Spine2
			{
				OFFSET 0.168000 16.242897 -1.435500
				CHANNELS 3 Xrotation Yrotation Zrotation
				JOINT Neck
				{
					OFFSET 0.217200 18.631500 -1.679100
					CHANNELS 3 Xrotation Yrotation Zrotation
					JOINT Head
					{
						OFFSET 0.000000 6.599396 1.385900
						CHANNELS 3 Xrotation Yrotation Zrotation
						JOINT Hat
						{
							OFFSET -0.532200 27.220596 -10.096100
							CHANNELS 3 Xrotation Yrotation Zrotation
							End Site
							{
								OFFSET 0.000000 22.029861 0.000000
							}
						}
						JOINT HairD
						{
							OFFSET -10.777400 17.437393 -1.325900
							CHANNELS 3 Xrotation Yrotation Zrotation
							JOINT HairD1
							{
								OFFSET -3.290299 -11.051193 1.062200
								CHANNELS 3 Xrotation Yrotation Zrotation
								End Site
								{
									OFFSET 0.000000 11.579437 0.000000
								}
							}
						}
						JOINT HairB
						{
							OFFSET -10.777400 17.437393 1.467900
							CHANNELS 3 Xrotation Yrotation Zrotation
							JOINT HairB1
							{
								OFFSET -1.561200 -12.956299 3.590200
								CHANNELS 3 Xrotation Yrotation Zrotation
								End Site
								{
									OFFSET 0.000000 13.534866 0.000000
								}
							}
						}
						JOINT HairA
						{
							OFFSET 9.713100 17.437393 1.467900
							CHANNELS 3 Xrotation Yrotation Zrotation
							JOINT HairA1
							{
								OFFSET 1.561200 -12.956299 3.590200
								CHANNELS 3 Xrotation Yrotation Zrotation
								End Site
								{
									OFFSET 0.000000 13.534866 0.000000
								}
							}
						}
						JOINT HairC
						{
							OFFSET 9.713100 17.437393 -1.325900
							CHANNELS 3 Xrotation Yrotation Zrotation
							JOINT HairC1
							{
								OFFSET 3.290300 -11.051193 1.062200
								CHANNELS 3 Xrotation Yrotation Zrotation
								End Site
								{
									OFFSET 0.000000 11.579437 0.000000
								}
							}
						}
					}
				}
				JOINT LeftShoulder
				{
					OFFSET 5.101800 15.108002 -2.763700
					CHANNELS 3 Xrotation Yrotation Zrotation
					JOINT LeftArm
					{
						OFFSET 9.825497 2.506317 -1.597400
						CHANNELS 3 Xrotation Yrotation Zrotation
						JOINT LeftForeArm
						{
							OFFSET 21.966244 0.000000 0.000000
							CHANNELS 3 Xrotation Yrotation Zrotation
							JOINT LeftHand
							{
								OFFSET 33.879036 0.000000 0.000000
								CHANNELS 3 Xrotation Yrotation Zrotation
								JOINT LeftHandThumb1
								{
									OFFSET 6.715286 -2.359680 3.363841
									CHANNELS 3 Xrotation Yrotation Zrotation
									JOINT LeftHandThumb2
									{
										OFFSET 2.507072 -1.447464 1.447461
										CHANNELS 3 Xrotation Yrotation Zrotation
										JOINT LeftHandThumb3
										{
											OFFSET 2.898338 -1.673355 1.673357
											CHANNELS 3 Xrotation Yrotation Zrotation
											End Site
											{
												OFFSET -0.295959 3.727692 -0.131651
											}
										}
									}
								}
								JOINT LeftHandIndex1
								{
									OFFSET 14.190811 -0.254547 3.840278
									CHANNELS 3 Xrotation Yrotation Zrotation
									JOINT LeftHandIndex2
									{
										OFFSET 3.551727 0.000000 -0.000000
										CHANNELS 3 Xrotation Yrotation Zrotation
										JOINT LeftHandIndex3
										{
											OFFSET 2.894196 0.000000 0.000000
											CHANNELS 3 Xrotation Yrotation Zrotation
											End Site
											{
												OFFSET -1.000603 2.690872 0.366626
											}
										}
									}
								}
								JOINT LeftHandMiddle1
								{
									OFFSET 13.776489 0.000000 0.000000
									CHANNELS 3 Xrotation Yrotation Zrotation
									JOINT LeftHandMiddle2
									{
										OFFSET 3.438232 0.000000 0.000000
										CHANNELS 3 Xrotation Yrotation Zrotation
										JOINT LeftHandMiddle3
										{
											OFFSET 3.691551 0.000000 0.000000
											CHANNELS 3 Xrotation Yrotation Zrotation
											End Site
											{
												OFFSET -1.082298 3.499527 0.457670
											}
										}
									}
								}
								JOINT LeftHandRing1
								{
									OFFSET 13.966164 -0.268127 -3.067488
									CHANNELS 3 Xrotation Yrotation Zrotation
									JOINT LeftHandRing2
									{
										OFFSET 3.162567 0.000000 0.000000
										CHANNELS 3 Xrotation Yrotation Zrotation
										JOINT LeftHandRing3
										{
											OFFSET 3.324348 0.000000 0.000000
											CHANNELS 3 Xrotation Yrotation Zrotation
											End Site
											{
												OFFSET -0.861900 3.184998 0.405154
											}
										}
									}
								}
								JOINT LeftHandPinky1
								{
									OFFSET 13.131393 -0.168503 -5.746925
									CHANNELS 3 Xrotation Yrotation Zrotation
									JOINT LeftHandPinky2
									{
										OFFSET 2.849182 0.000000 0.000000
										CHANNELS 3 Xrotation Yrotation Zrotation
										JOINT LeftHandPinky3
										{
											OFFSET 2.805038 0.000000 0.000000
											CHANNELS 3 Xrotation Yrotation Zrotation
											End Site
											{
												OFFSET -0.882500 2.642609 0.325652
											}
										}
									}
								}
							}
							JOINT Left_Sleeve
							{
								OFFSET 6.592125 -0.646545 0.805568
								CHANNELS 3 Xrotation Yrotation Zrotation
								End Site
								{
									OFFSET -0.000179 20.275787 -0.000000
								}
							}
						}
					}
				}
				JOINT RightShoulder
				{
					OFFSET -5.731700 15.108002 -2.763700
					CHANNELS 3 Xrotation Yrotation Zrotation
					JOINT RightArm
					{
						OFFSET -9.825497 2.506317 -1.597400
						CHANNELS 3 Xrotation Yrotation Zrotation
						JOINT RightForeArm
						{
							OFFSET -21.966242 0.000000 0.000000
							CHANNELS 3 Xrotation Yrotation Zrotation
							JOINT RightHand
							{
								OFFSET -33.879032 0.000000 0.000000
								CHANNELS 3 Xrotation Yrotation Zrotation
								JOINT RightHandThumb1
								{
									OFFSET -6.715286 -2.359680 3.363841
									CHANNELS 3 Xrotation Yrotation Zrotation
									JOINT RightHandThumb2
									{
										OFFSET -2.507072 -1.447464 1.447461
										CHANNELS 3 Xrotation Yrotation Zrotation
										JOINT RightHandThumb3
										{
											OFFSET -2.898338 -1.673355 1.673357
											CHANNELS 3 Xrotation Yrotation Zrotation
											End Site
											{
												OFFSET 0.295959 3.727692 -0.131651
											}
										}
									}
								}
								JOINT RightHandIndex1
								{
									OFFSET -14.190811 -0.254547 3.840278
									CHANNELS 3 Xrotation Yrotation Zrotation
									JOINT RightHandIndex2
									{
										OFFSET -3.551727 0.000000 -0.000000
										CHANNELS 3 Xrotation Yrotation Zrotation
										JOINT RightHandIndex3
										{
											OFFSET -2.894196 0.000000 0.000000
											CHANNELS 3 Xrotation Yrotation Zrotation
											End Site
											{
												OFFSET 1.000603 2.690872 0.366626
											}
										}
									}
								}
								JOINT RightHandMiddle1
								{
									OFFSET -13.776489 0.000000 0.000000
									CHANNELS 3 Xrotation Yrotation Zrotation
									JOINT RightHandMiddle2
									{
										OFFSET -3.438232 0.000000 0.000000
										CHANNELS 3 Xrotation Yrotation Zrotation
										JOINT RightHandMiddle3
										{
											OFFSET -3.691551 0.000000 0.000000
											CHANNELS 3 Xrotation Yrotation Zrotation
											End Site
											{
												OFFSET 1.082298 3.499527 0.457670
											}
										}
									}
								}
								JOINT RightHandRing1
								{
									OFFSET -13.966164 -0.268127 -3.067488
									CHANNELS 3 Xrotation Yrotation Zrotation
									JOINT RightHandRing2
									{
										OFFSET -3.162567 0.000000 0.000000
										CHANNELS 3 Xrotation Yrotation Zrotation
										JOINT RightHandRing3
										{
											OFFSET -3.324348 0.000000 0.000000
											CHANNELS 3 Xrotation Yrotation Zrotation
											End Site
											{
												OFFSET 0.861900 3.184998 0.405154
											}
										}
									}
								}
								JOINT RightHandPinky1
								{
									OFFSET -13.131393 -0.168503 -5.746925
									CHANNELS 3 Xrotation Yrotation Zrotation
									JOINT RightHandPinky2
									{
										OFFSET -2.849182 0.000000 0.000000
										CHANNELS 3 Xrotation Yrotation Zrotation
										JOINT RightHandPinky3
										{
											OFFSET -2.805038 0.000000 0.000000
											CHANNELS 3 Xrotation Yrotation Zrotation
											End Site
											{
												OFFSET 0.882500 2.642609 0.325652
											}
										}
									}
								}
							}
							JOINT Right_Sleeve
							{
								OFFSET -6.592125 -0.646545 0.805568
								CHANNELS 3 Xrotation Yrotation Zrotation
								End Site
								{
									OFFSET 0.000179 20.275787 -0.000000
								}
							}
						}
					}
				}
				JOINT Bind_Right_JacketString
				{
					OFFSET -3.534800 11.969597 7.200700
					CHANNELS 3 Xrotation Yrotation Zrotation
					JOINT Bind_Right_JacketString1
					{
						OFFSET -0.319900 -6.102600 2.794100
						CHANNELS 3 Xrotation Yrotation Zrotation
						End Site
						{
							OFFSET 0.000000 6.719452 0.000000
						}
					}
				}
				JOINT Bind_Left_JacketString
				{
					OFFSET 2.904800 11.969597 7.200700
					CHANNELS 3 Xrotation Yrotation Zrotation
					JOINT Bind_Left_JacketString1
					{
						OFFSET 0.364800 -5.904503 3.186800
						CHANNELS 3 Xrotation Yrotation Zrotation
						End Site
						{
							OFFSET 0.000000 6.719513 0.000000
						}
					}
				}
				JOINT HairE
				{
					OFFSET 5.915200 17.612701 -11.592200
					CHANNELS 3 Xrotation Yrotation Zrotation
					JOINT HairE1
					{
						OFFSET 0.289200 -7.171898 -1.284500
						CHANNELS 3 Xrotation Yrotation Zrotation
						End Site
						{
							OFFSET 0.000000 7.291756 0.000000
						}
					}
				}
				JOINT HairF
				{
					OFFSET -0.864800 17.612701 -11.592200
					CHANNELS 3 Xrotation Yrotation Zrotation
					JOINT HairF1
					{
						OFFSET 0.000000 -14.087097 -2.127501
						CHANNELS 3 Xrotation Yrotation Zrotation
						End Site
						{
							OFFSET 0.000000 14.246841 0.000000
						}
					}
				}
				JOINT HairG
				{
					OFFSET -8.087700 17.612701 -11.592200
					CHANNELS 3 Xrotation Yrotation Zrotation
					JOINT HairG1
					{
						OFFSET -0.293600 -6.081398 -0.910100
						CHANNELS 3 Xrotation Yrotation Zrotation
						End Site
						{
							OFFSET 0.000000 6.156120 0.000000
						}
					}
				}
			}
		}
	}
	JOINT Pouch
	{
		OFFSET 0.000000 4.394501 10.847300
		CHANNELS 3 Xrotation Yrotation Zrotation
		End Site
		{
			OFFSET 0.000000 21.880577 0.000000
		}
	}
	JOINT Bag
	{
		OFFSET -13.229000 4.813004 -0.593300
		CHANNELS 3 Xrotation Yrotation Zrotation
		End Site
		{
			OFFSET 0.000000 21.880577 0.000000
		}
	}
	JOINT OccupyGuyFacialAnim_Joint
	{
		OFFSET 1.000000 -70.206398 -1.655000
		CHANNELS 3 Xrotation Yrotation Zrotation
		End Site
		{
			OFFSET 0.000000 21.880577 0.000000
		}
	}
}
MOTION
Frames: 4
Frame Time: 0.033333
-0.035374 70.332893 0.122280 2.906710 -28.994665 1.180125 0.000000 -0.000001 -0.000000 -14.997306 18.715931 9.352283 17.133495 13.220950 -0.892728 -4.456768 -4.018991 -5.088530 0.000000 0.000000 0.000000 0.000001 -0.000001 -0.000000 -5.457498 -1.947714 -9.247640 10.906960 9.736396 0.833875 -8.831888 -1.017784 7.077230 0.000000 0.000001 -0.000000 0.000000 -0.000000 -0.000001 7.835419 -0.379440 -2.681622 1.099095 -0.875343 2.385390 1.108633 -0.589333 2.446648 -3.840536 18.019397 -6.501345 -6.332527 13.022751 0.301651 0.000000 0.000000 -0.000000 0.000000 0.000000 -0.000000 0.000000 0.000000 -0.000000 0.000000 0.000000 0.000000 -0.000000 0.000000 0.000000 0.000000 0.000000 0.000000 -0.000000 0.000000 0.000000 0.000000 0.000000 -0.000000 0.000000 0.000000 -0.000000 -0.057992 -8.759290 -0.063088 -55.250797 0.329466 -41.449348 11.584277 -65.827301 13.005018 -50.200166 12.352036 4.613675 17.554396 -5.703432 -12.929752 10.850495 26.127692 8.644777 0.000001 -0.000001 0.000001 13.973052 1.202420 -55.004309 0.378276 1.149567 -65.442071 0.000001 0.000001 -0.000000 7.504722 1.170088 -63.778012 1.807467 1.469369 -64.567841 0.000001 0.000001 0.000003 8.578183 2.180142 -75.149204 -0.203364 1.005764 -57.855158 -0.000001 0.000000 -0.000002 10.030088 13.637218 -84.749909 0.884286 0.062490 -64.595421 -0.000000 -0.000000 -0.000004 0.000002 0.000000 -0.000001 4.857116 7.760168 5.557334 -0.933374 -2.176941 61.847295 11.299261 18.943607 -3.990797 -0.462228 6.619756 5.830275 15.786461 -2.735172 -17.205077 -2.199548 -31.114165 7.361510 -0.000000 0.000000 0.000001 2.371640 -3.659169 8.487418 -2.147658 -2.467448 18.673652 -0.000000 0.000000 -0.000001 -1.976051 -5.707853 13.662349 0.282908 -5.104574 26.988048 -0.000000 -0.000000 0.000001 -3.263055 -8.562141 11.769130 4.025599 -4.047507 33.262000 -0.000001 -0.000001 0.000001 -6.471383 -11.348075 23.261164 10.723735 -2.567309 34.824519 -0.000001 0.000000 0.000002 -0.000001 -0.000000 -0.000001 0.000001 -0.000001 0.000000 0.000001 -0.000001 0.000000 0.000001 -0.000001 0.000000 0.000001 -0.000001 0.000000 0.000001 -0.000001 0.000000 0.000001 -0.000001 0.000000 0.000001 -0.000001 0.000000 0.000001 -0.000001 0.000000 0.000001 -0.000001 0.000000 0.000001 -0.000001 0.000000 0.000000 -0.000001 -0.000000 0.000000 -0.000001 -0.000000 0.000000 -0.000001 -0.000000 
-0.019426 70.332733 0.108311 2.906707 -28.994597 1.179955 -0.000000 -0.000002 0.000000 -15.021312 18.715975 9.344420 17.132425 13.253736 -0.899464 -4.433475 -4.031555 -5.065948 0.000000 0.000000 -0.000000 -0.000000 0.000000 -0.000000 -5.483885 -1.944344 -9.243627 10.933811 9.725050 0.831411 -8.829300 -1.016462 7.076294 -0.000000 -0.000001 -0.000000 -0.000000 0.000000 -0.000000 7.859402 -0.380601 -2.681286 1.086529 -0.875884 2.385200 1.108636 -0.589337 2.446651 -3.799246 18.032504 -6.512261 -6.380243 13.026326 0.329087 0.000000 -0.000000 -0.000000 0.000000 -0.000000 -0.000000 0.000000 -0.000000 -0.000000 0.000000 -0.000000 -0.000000 -0.000000 -0.000000 -0.000000 0.000000 -0.000000 -0.000000 -0.000000 -0.000000 -0.000000 0.000000 -0.000000 -0.000000 0.000000 -0.000000 -0.000000 -0.056787 -8.739778 -0.061652 -55.229709 0.313661 -41.409559 11.647779 -65.784783 13.061640 -50.201907 12.371904 4.617255 17.578477 -5.632304 -12.936780 10.816662 26.035884 8.640451 -0.000000 0.000001 -0.000000 13.970091 1.151772 -54.979878 0.378089 1.149425 -65.431450 0.000001 0.000000 -0.000002 7.509201 1.170012 -63.761612 1.807320 1.469432 -64.561598 0.000003 -0.000001 -0.000003 8.578046 2.180042 -75.141869 -0.203423 1.005704 -57.851436 0.000000 0.000000 -0.000004 10.030067 13.637209 -84.749889 0.883973 0.062406 -64.582499 0.000001 -0.000001 -0.000001 0.000002 0.000001 -0.000000 4.857116 7.760173 5.557336 -0.909312 -2.223055 61.847971 11.289281 18.938064 -3.986731 -0.460647 6.631346 5.799877 15.788054 -2.739710 -17.204787 -2.239187 -31.018191 7.375751 -0.000000 0.000001 -0.000002 2.333910 -3.767540 8.221320 -2.159319 -2.462481 18.396266 -0.000000 0.000000 0.000002 -1.953987 -5.880445 13.442815 0.263837 -5.104030 26.774531 -0.000001 -0.000001 0.000001 -3.138570 -8.934369 11.596331 4.016723 -4.056280 33.136096 0.000000 -0.000002 0.000001 -6.472429 -11.347612 23.223572 10.723155 -2.566712 34.786959 -0.000000 0.000001 0.000001 -0.000000 -0.000000 0.000002 0.000001 -0.000000 -0.000000 0.000001 0.000003 -0.000001 0.000001 -0.000000 -0.000000 0.000001 -0.000000 -0.000000 0.000001 -0.000000 -0.000000 0.000001 0.000003 -0.000001 0.000001 -0.000000 -0.000000 0.000001 -0.000000 -0.000000 0.000001 -0.000000 -0.000000 0.000001 0.000003 -0.000001 -0.000000 -0.000002 0.000000 -0.000000 -0.000002 0.000000 -0.000000 -0.000002 0.000000 
-0.003042 70.332275 0.093798 2.906765 -28.997206 1.180160 0.000000 -0.000002 0.000000 -15.037783 18.719216 9.329155 17.131957 13.270139 -0.880874 -4.421768 -4.035877 -5.063957 -0.000000 -0.000000 0.000000 0.000000 -0.000000 0.000000 -5.510007 -1.939328 -9.252894 10.938714 9.744960 0.829070 -8.810950 -1.021664 7.085139 -0.000000 -0.000001 -0.000000 -0.000000 0.000001 -0.000000 7.885022 -0.381814 -2.681169 1.074126 -0.876392 2.385009 1.108630 -0.589338 2.446651 -3.759529 18.045018 -6.522784 -6.411035 13.036745 0.348863 -0.000000 -0.000000 -0.000000 -0.000000 -0.000000 -0.000000 -0.000000 -0.000000 -0.000000 -0.000000 -0.000000 0.000000 -0.000000 -0.000000 0.000000 -0.000000 -0.000000 0.000000 -0.000000 -0.000000 0.000000 -0.000000 -0.000000 -0.000000 -0.000000 -0.000000 -0.000000 -0.056460 -8.722017 -0.064602 -55.214706 0.296093 -41.378857 11.706067 -65.760098 13.114054 -50.204411 12.404802 4.627465 17.584302 -5.615061 -12.938499 10.802521 25.997530 8.638630 0.000001 0.000001 -0.000001 13.961297 1.095280 -54.961740 0.378129 1.149411 -65.432140 0.000001 0.000001 -0.000000 7.521943 1.168305 -63.762937 1.807633 1.469264 -64.573974 0.000001 -0.000000 -0.000006 8.578336 2.177446 -75.159805 -0.203236 1.006215 -57.874146 -0.000001 -0.000001 -0.000004 10.040819 13.639239 -84.757183 0.884154 0.062448 -64.590831 -0.000001 -0.000000 -0.000004 -0.000001 0.000001 -0.000001 4.857120 7.760172 5.557333 -0.851667 -2.287151 61.869383 11.280822 18.914717 -3.981131 -0.452617 6.598888 5.764890 15.775608 -2.704314 -17.207142 -2.320933 -30.898178 7.366468 0.000000 -0.000001 0.000000 2.316247 -3.803323 8.012315 -2.168290 -2.457524 18.183159 -0.000001 -0.000000 0.000002 -1.942491 -5.977220 13.207896 0.247702 -5.103181 26.542938 -0.000000 -0.000000 0.000003 -3.049313 -9.207207 11.267052 4.004486 -4.071177 32.841069 -0.000000 -0.000001 -0.000000 -6.475437 -11.346940 23.116504 10.721507 -2.564982 34.680320 -0.000001 0.000000 0.000002 -0.000001 -0.000000 0.000001 0.000001 -0.000001 -0.000000 0.000002 0.000001 -0.000000 0.000001 -0.000001 0.000000 0.000001 -0.000001 0.000000 0.000001 -0.000001 -0.000000 0.000002 0.000001 -0.000000 0.000001 -0.000001 0.000000 0.000001 -0.000001 0.000000 0.000001 -0.000001 -0.000000 0.000002 0.000001 -0.000000 0.000000 -0.000002 0.000000 0.000000 -0.000002 0.000000 0.000000 -0.000002 0.000000 
0.013212 70.332199 0.079291 2.906879 -29.002394 1.180520 0.000000 0.000000 -0.000000 -15.051731 18.730071 9.323058 17.133588 13.281885 -0.877478 -4.413170 -4.043588 -5.053272 0.000000 -0.000000 0.000000 -0.000001 0.000000 -0.000000 -5.522196 -1.938112 -9.258301 10.942824 9.739608 0.832828 -8.798454 -1.027375 7.093500 -0.000000 0.000000 -0.000000 -0.000000 0.000001 -0.000000 7.910861 -0.383059 -2.681047 1.061777 -0.876910 2.384822 1.108635 -0.589333 2.446650 -3.719144 18.056957 -6.533592 -6.436296 13.048153 0.365369 -0.000000 -0.000000 0.000000 -0.000000 -0.000000 0.000000 -0.000000 -0.000000 0.000000 -0.000000 -0.000000 0.000000 -0.000000 -0.000000 0.000000 -0.000000 -0.000000 0.000000 -0.000000 -0.000000 0.000000 -0.000000 -0.000000 0.000000 -0.000000 -0.000000 0.000000 -0.057721 -8.704932 -0.076374 -55.202378 0.277603 -41.352301 11.762410 -65.743296 13.165000 -50.217019 12.442398 4.643765 17.581030 -5.624753 -12.937514 10.829712 26.071341 8.642121 0.000002 0.000001 0.000000 13.940119 1.101160 -54.904086 0.377153 1.148570 -65.367697 -0.000000 0.000000 -0.000000 7.499144 1.187347 -63.687969 1.805312 1.470487 -64.487736 -0.000001 -0.000000 -0.000001 8.576391 2.195033 -75.042879 -0.204103 1.003575 -57.760328 0.000000 -0.000000 0.000002 9.999427 13.629857 -84.726051 0.881711 0.061692 -64.475176 -0.000000 0.000000 -0.000004 0.000000 0.000002 -0.000002 4.860221 7.744741 5.543586 -0.764116 -2.352461 61.917789 11.286517 18.876607 -3.978562 -0.437095 6.530055 5.704834 15.764092 -2.672122 -17.209220 -2.447950 -30.714042 7.350947 -0.000000 -0.000003 0.000000 2.299267 -3.832697 7.748980 -2.178323 -2.451547 17.916416 -0.000000 0.000000 -0.000001 -1.933428 -6.062163 12.920629 0.235106 -5.101744 26.258939 0.000000 0.000000 -0.000003 -2.971238 -9.452371 10.893406 3.993774 -4.086221 32.497835 0.000001 -0.000000 -0.000002 -6.475012 -11.347137 22.949209 10.718952 -2.562264 34.512775 -0.000001 0.000001 0.000001 0.000000 0.000000 -0.000001 -0.000000 0.000001 -0.000000 0.000000 0.000001 -0.000000 -0.000000 0.000001 -0.000000 -0.000000 0.000001 -0.000000 -0.000000 0.000001 -0.000000 0.000000 0.000001 -0.000000 -0.000000 0.000001 -0.000000 -0.000000 0.000001 -0.000000 -0.000000 0.000001 -0.000000 0.000000 0.000001 -0.000000 0.000000 0.000000 -0.000000 0.000000 0.000000 -0.000000 0.000000 0.000000 -0.000000 
